<svg width="48" height="49" viewBox="0 0 48 49" fill="none" xmlns="http://www.w3.org/2000/svg">
<mask id="mask0_57359_662" style="mask-type:alpha" maskUnits="userSpaceOnUse" x="0" y="0" width="48" height="49">
<rect width="48" height="49" fill="#D9D9D9"/>
</mask>
<g mask="url(#mask0_57359_662)">
<path d="M15.9 39.75V36.6875H23.5V29.1333C21.7 28.759 20.1 27.9679 18.7 26.7599C17.3 25.5519 16.3333 24.0462 15.8 22.2427C13.3333 21.9705 11.25 20.9497 9.55 19.1802C7.85 17.4108 7 15.284 7 12.8V10.5542C7 9.70347 7.29167 8.98038 7.875 8.3849C8.45833 7.78941 9.16667 7.49167 10 7.49167H15.2V3H34.8V7.49167H40C40.8333 7.49167 41.5417 7.78941 42.125 8.3849C42.7083 8.98038 43 9.70347 43 10.5542V12.8C43 15.284 42.15 17.4108 40.45 19.1802C38.75 20.9497 36.6667 21.9705 34.2 22.2427C33.6667 24.0462 32.7 25.5519 31.3 26.7599C29.9 27.9679 28.3 28.759 26.5 29.1333V36.6875H34.1V39.75H15.9ZM15.2 19.0271V10.5542H10V12.8C10 14.3313 10.4917 15.6668 11.475 16.8068C12.4583 17.9467 13.7 18.6868 15.2 19.0271ZM25 26.224C26.9 26.224 28.5083 25.5434 29.825 24.1823C31.1417 22.8212 31.8 21.1708 31.8 19.2313V6.0625H18.2V19.2313C18.2 21.1708 18.8583 22.8212 20.175 24.1823C21.4917 25.5434 23.1 26.224 25 26.224ZM34.8 19.0271C36.3 18.6868 37.5417 17.9467 38.525 16.8068C39.5083 15.6668 40 14.3313 40 12.8V10.5542H34.8V19.0271Z" fill="white"/>
</g>
</svg>
