<svg width="48" height="48" viewBox="0 0 48 48" fill="none" xmlns="http://www.w3.org/2000/svg">
<mask id="mask0_57359_577" style="mask-type:alpha" maskUnits="userSpaceOnUse" x="0" y="0" width="48" height="48">
<rect width="48" height="48" fill="#D9D9D9"/>
</mask>
<g mask="url(#mask0_57359_577)">
<path d="M21.45 30H26.55L25.3 22.75C25.9667 22.45 26.5 22.0083 26.9 21.425C27.3 20.8417 27.5 20.2 27.5 19.5C27.5 18.5333 27.1583 17.7083 26.475 17.025C25.7917 16.3417 24.9667 16 24 16C23.0333 16 22.2083 16.3417 21.525 17.025C20.8417 17.7083 20.5 18.5333 20.5 19.5C20.5 20.2 20.7 20.8417 21.1 21.425C21.5 22.0083 22.0333 22.45 22.7 22.75L21.45 30ZM24 43.95C19.3333 42.7833 15.5 40.075 12.5 35.825C9.5 31.575 8 26.9167 8 21.85V9.95001L24 3.95001L40 9.95001V21.85C40 26.9167 38.5 31.575 35.5 35.825C32.5 40.075 28.6667 42.7833 24 43.95ZM24 40.85C27.8333 39.5833 30.9583 37.1917 33.375 33.675C35.7917 30.1583 37 26.2167 37 21.85V12.05L24 7.15001L11 12.05V21.85C11 26.2167 12.2083 30.1583 14.625 33.675C17.0417 37.1917 20.1667 39.5833 24 40.85Z" fill="white"/>
</g>
</svg>
